<svg width="27" height="28" viewBox="0 0 27 28" fill="none" xmlns="http://www.w3.org/2000/svg">
<path d="M25.1591 0H1.84091C0.797727 0 0 0.803599 0 1.85446V17.9264C0 18.9773 0.797727 19.7809 1.84091 19.7809H12.2727C12.6409 19.7809 12.8864 19.5336 12.8864 19.1627C12.8864 18.7918 12.6409 18.5446 12.2727 18.5446H1.84091C1.47273 18.5446 1.22727 18.2973 1.22727 17.9264V1.85446C1.22727 1.48357 1.47273 1.23631 1.84091 1.23631H25.1591C25.5273 1.23631 25.7727 1.48357 25.7727 1.85446V17.9264C25.7727 18.2973 25.5273 18.5446 25.1591 18.5446H24.1773L24.3614 18.3591C24.5455 18.1119 24.5455 17.741 24.3614 17.5555L23.625 16.6901L23.8705 15.5775C23.9318 15.2684 23.7477 14.9593 23.4409 14.8357L22.3977 14.4648L22.0909 13.4757C21.9682 13.1667 21.6614 12.9812 21.3545 13.043L20.25 13.2903L19.4523 12.5485C19.2068 12.3631 18.8386 12.3631 18.6545 12.5485L17.7955 13.2903L16.6909 13.043C16.3841 12.9812 16.0773 13.1667 15.9545 13.4757L15.5864 14.5266L14.6045 14.8357C14.2977 14.9593 14.1136 15.2684 14.175 15.5775L14.4205 16.6901L13.6841 17.4937C13.5 17.741 13.5 18.1119 13.6841 18.2973L14.4205 19.1009L14.175 20.2136C14.1136 20.5227 14.2977 20.8318 14.6045 20.9554L15.6477 21.3263L16.0159 22.3771C16.1386 22.6862 16.4455 22.8717 16.7523 22.8098L17.8568 22.5626L18.6545 23.3044C18.9 23.4898 19.2682 23.4898 19.4523 23.3044L20.25 22.5626L20.8636 22.6862V25.5297L19.2682 24.7261C19.0841 24.6643 18.9 24.6643 18.7159 24.7261L17.1818 25.5915V24.108C17.1818 23.7371 16.9364 23.4898 16.5682 23.4898C16.2 23.4898 15.9545 23.7371 15.9545 24.108V26.5806C15.9545 26.766 16.0773 27.0133 16.2614 27.1369C16.4455 27.2605 16.6909 27.2605 16.875 27.1369L19.0841 26.0242L21.2932 27.1369C21.2932 27.1987 21.3545 27.1987 21.4773 27.1987C21.6 27.1987 21.7227 27.1369 21.7841 27.1369C21.9682 27.0133 22.0909 26.8278 22.0909 26.5806V22.1917C22.0909 21.8826 21.9068 21.6354 21.6 21.5735L20.1886 21.2645C20.0045 21.2026 19.8205 21.2645 19.6364 21.3881L18.9614 22.0062L18.2864 21.3881C18.1636 21.2645 17.9182 21.2026 17.7341 21.2645L16.875 21.4499L16.6295 20.5845C16.5682 20.399 16.4455 20.2754 16.2614 20.2136L15.4023 19.9663L15.5864 19.1009C15.6477 18.9155 15.5864 18.73 15.4636 18.5446L14.85 17.8646L15.4636 17.1847C15.5864 17.061 15.6477 16.8138 15.5864 16.6283L15.4023 15.7629L16.2614 15.5156C16.4455 15.4538 16.5682 15.3302 16.6295 15.1447L16.875 14.2793L17.7341 14.4648C17.9182 14.5266 18.1023 14.4648 18.2864 14.3411L18.9614 13.723L19.6364 14.3411C19.7591 14.4648 20.0045 14.5266 20.1886 14.4648L21.0477 14.2793L21.2932 15.1447C21.3545 15.3302 21.4773 15.4538 21.6614 15.5156L22.5205 15.7629L22.3364 16.6283C22.275 16.8138 22.3364 16.9992 22.4591 17.1847L23.0727 17.8646L22.4591 18.5446C22.3364 18.6682 22.275 18.9155 22.3364 19.1009L22.6432 20.5227C22.7045 20.8318 23.0114 21.079 23.3795 21.0172C23.6864 20.9554 23.9318 20.6463 23.8705 20.2754L23.7477 19.7809H25.1591C26.2023 19.7809 27 18.9773 27 17.9264V1.85446C27 0.803599 26.2023 0 25.1591 0Z" fill="#353535"/>
<path d="M19.0228 15.4537C17.6728 15.4537 16.5682 16.5664 16.5682 17.9263C16.5682 19.2863 17.6728 20.399 19.0228 20.399C20.3728 20.399 21.4773 19.2863 21.4773 17.9263C21.4773 16.5664 20.3728 15.4537 19.0228 15.4537ZM19.0228 19.1626C18.3478 19.1626 17.7955 18.6063 17.7955 17.9263C17.7955 17.2464 18.3478 16.69 19.0228 16.69C19.6978 16.69 20.2501 17.2464 20.2501 17.9263C20.2501 18.6063 19.6978 19.1626 19.0228 19.1626Z" fill="#353535"/>
<path d="M17.1818 2.47266H9.8182C9.45001 2.47266 9.20456 2.71992 9.20456 3.09082C9.20456 3.46172 9.45001 3.70898 9.8182 3.70898H17.1818C17.55 3.70898 17.7955 3.46172 17.7955 3.09082C17.7955 2.71992 17.55 2.47266 17.1818 2.47266Z" fill="#353535"/>
<path d="M14.1135 9.27232C14.1135 8.90143 13.8681 8.65417 13.4999 8.65417H4.29534C3.92716 8.65417 3.6817 8.90143 3.6817 9.27232C3.6817 9.6432 3.92716 9.89046 4.29534 9.89046H13.4999C13.8681 9.89046 14.1135 9.6432 14.1135 9.27232Z" fill="#353535"/>
<path d="M11.659 11.7449C11.659 11.374 11.4135 11.1267 11.0453 11.1267H4.29534C3.92716 11.1267 3.6817 11.374 3.6817 11.7449C3.6817 12.1158 3.92716 12.3631 4.29534 12.3631H11.0453C11.4135 12.3631 11.659 12.1158 11.659 11.7449Z" fill="#353535"/>
<path d="M15.9546 5.56335C15.9546 5.19246 15.7091 4.94519 15.3409 4.94519H11.6591C11.2909 4.94519 11.0455 5.19246 11.0455 5.56335C11.0455 5.93425 11.2909 6.18152 11.6591 6.18152H15.3409C15.7091 6.18152 15.9546 5.93425 15.9546 5.56335Z" fill="#353535"/>
<path d="M15.9545 9.89046H19.6363C20.0045 9.89046 20.2499 9.6432 20.2499 9.27232C20.2499 8.90143 20.0045 8.65417 19.6363 8.65417H15.9545C15.5863 8.65417 15.3409 8.90143 15.3409 9.27232C15.3409 9.6432 15.5863 9.89046 15.9545 9.89046Z" fill="#353535"/>
<path d="M7.85442 15.4538C7.67033 15.4538 7.54761 15.392 7.42488 15.2684L6.81124 14.6502C6.07488 13.9084 4.90897 13.9084 4.23397 14.6502L3.86579 15.0211C3.62034 15.2684 3.62034 15.6392 3.86579 15.8865C4.11125 16.1338 4.47943 16.1338 4.72488 15.8865L5.09306 15.5156C5.33852 15.2684 5.7067 15.2684 5.95215 15.5156L6.56579 16.1338C6.93397 16.5046 7.36352 16.6901 7.85442 16.6901H9.20442C9.5726 16.6901 9.81806 16.4428 9.81806 16.0719C9.81806 15.7011 9.5726 15.4538 9.20442 15.4538H7.85442Z" fill="#353535"/>
<path d="M15.9546 11.7449C15.9546 11.374 15.7092 11.1267 15.341 11.1267H13.5001C13.1319 11.1267 12.8864 11.374 12.8864 11.7449C12.8864 12.1158 13.1319 12.3631 13.5001 12.3631H15.341C15.7092 12.3631 15.9546 12.1158 15.9546 11.7449Z" fill="#353535"/>
</svg>
