<svg width="29" height="28" viewBox="0 0 29 28" fill="none" xmlns="http://www.w3.org/2000/svg">
<g clip-path="url(#clip0)">
<path d="M26.9435 7.99313L16.0083 4.13858C14.8142 3.71699 13.4945 3.71699 12.3004 4.13858L2.05653 7.9329C1.17669 8.23404 0.67392 9.01699 0.67392 9.86017C0.67392 10.7034 1.23953 11.4261 2.05653 11.7272L12.9917 15.5818C13.5573 15.7624 14.1858 15.8829 14.8142 15.8829C15.4427 15.8829 16.0712 15.7624 16.5739 15.5215L19.0878 14.6181C19.402 14.4977 19.5905 14.1363 19.4648 13.8352C19.3391 13.534 18.9621 13.3534 18.6478 13.4738L16.134 14.3772C15.317 14.6784 14.3743 14.6784 13.4316 14.3772L2.49645 10.5829C1.99368 10.4022 1.93084 9.98063 1.93084 9.86017C1.93084 9.73972 1.99368 9.2579 2.49645 9.07722L12.7403 5.34313C13.6202 5.04199 14.6257 4.98176 15.5684 5.34313L26.5036 9.19767C26.8806 9.2579 27.0692 9.49881 27.0692 9.86017C27.0692 10.2215 26.8178 10.5227 26.4407 10.6431L22.0415 12.2693L15.3798 9.67949C15.1913 9.43858 14.7514 9.2579 14.1858 9.2579C13.4945 9.2579 12.9289 9.55904 12.9289 9.86017C12.9289 10.1613 13.4316 10.4022 14.0601 10.4624L21.413 13.2931V20.7613C20.6589 21.0022 20.1561 21.6647 20.1561 22.4477C20.1561 23.4715 20.9731 24.2545 22.0415 24.2545C23.1099 24.2545 23.9269 23.4715 23.9269 22.4477C23.9269 21.7852 23.5498 21.1829 22.9214 20.8818C23.4241 20.5806 23.9269 20.2193 24.304 19.9181C24.4296 19.7977 24.4925 19.617 24.4925 19.4965V14.6784C24.4925 14.317 24.2411 14.0761 23.864 14.0761C23.487 14.0761 23.2356 14.317 23.2356 14.6784V19.1954C23.047 19.3761 22.8585 19.4965 22.6071 19.617V13.3534L26.8178 11.8477C27.6976 11.5465 28.2632 10.7636 28.2632 9.9204C28.3261 9.01699 27.7605 8.29426 26.9435 7.99313ZM22.0415 23.1102C21.6644 23.1102 21.413 22.8693 21.413 22.5079C21.413 22.1465 21.6644 21.9056 22.0415 21.9056C22.4186 21.9056 22.67 22.1465 22.67 22.5079C22.67 22.8693 22.4186 23.1102 22.0415 23.1102Z" fill="#242424"/>
<path d="M18.1451 21.484C16.8881 21.7851 15.6312 21.9056 14.5 21.9056C11.3577 21.9056 7.64981 20.7613 5.70159 19.1954V14.6783C5.70159 14.317 5.45021 14.076 5.07313 14.076C4.69606 14.076 4.44467 14.317 4.44467 14.6783V19.4965C4.44467 19.6772 4.50752 19.8579 4.63321 19.9181C7.0842 22.026 11.4206 23.1101 14.5 23.1101C15.6941 23.1101 17.0767 22.9295 18.3965 22.6283C18.7107 22.5681 18.9621 22.2067 18.8364 21.9056C18.7735 21.6045 18.4593 21.3635 18.1451 21.484Z" fill="#242424"/>
</g>
<defs>
<clipPath id="clip0">
<rect width="27.6522" height="26.5" fill="white" transform="translate(0.67395 0.82605)"/>
</clipPath>
</defs>
</svg>
