<svg width="20" height="20" viewBox="0 0 20 20" fill="none" xmlns="http://www.w3.org/2000/svg">
<mask id="mask0" mask-type="alpha" maskUnits="userSpaceOnUse" x="1" y="0" width="18" height="20">
<path fill-rule="evenodd" clip-rule="evenodd" d="M9.99999 1.66667C8.23188 1.66667 6.53619 2.36905 5.28594 3.61929C4.0357 4.86953 3.33332 6.56522 3.33332 8.33333C3.33332 10.915 5.0131 13.4202 6.85495 15.3644C7.75883 16.3185 8.66555 17.0996 9.34722 17.6424C9.60092 17.8444 9.82251 18.0127 9.99999 18.1438C10.1775 18.0127 10.3991 17.8444 10.6528 17.6424C11.3344 17.0996 12.2411 16.3185 13.145 15.3644C14.9869 13.4202 16.6667 10.915 16.6667 8.33333C16.6667 6.56522 15.9643 4.86953 14.714 3.61929C13.4638 2.36905 11.7681 1.66667 9.99999 1.66667ZM9.99999 19.1667C9.53774 19.86 9.53753 19.8599 9.53729 19.8597L9.53491 19.8582L9.52935 19.8544L9.51026 19.8415C9.49403 19.8305 9.47089 19.8147 9.44129 19.7942C9.3821 19.7532 9.29704 19.6934 9.18982 19.616C8.97544 19.4612 8.67196 19.2352 8.30901 18.9462C7.58443 18.3692 6.61615 17.5357 5.64503 16.5106C3.73688 14.4965 1.66666 11.585 1.66666 8.33333C1.66666 6.1232 2.54463 4.00358 4.10743 2.44078C5.67024 0.877974 7.78985 0 9.99999 0C12.2101 0 14.3297 0.877974 15.8925 2.44078C17.4553 4.00358 18.3333 6.1232 18.3333 8.33333C18.3333 11.585 16.2631 14.4965 14.355 16.5106C13.3838 17.5357 12.4155 18.3692 11.691 18.9462C11.328 19.2352 11.0245 19.4612 10.8102 19.616C10.7029 19.6934 10.6179 19.7532 10.5587 19.7942C10.5291 19.8147 10.506 19.8305 10.4897 19.8415L10.4706 19.8544L10.4651 19.8582L10.4633 19.8593C10.4631 19.8595 10.4622 19.86 9.99999 19.1667ZM9.99999 19.1667L10.4622 19.86C10.1823 20.0467 9.81721 20.0464 9.53729 19.8597L9.99999 19.1667Z" fill="#061938"/>
<path fill-rule="evenodd" clip-rule="evenodd" d="M9.99999 6.66667C9.07952 6.66667 8.33332 7.41286 8.33332 8.33333C8.33332 9.25381 9.07952 10 9.99999 10C10.9205 10 11.6667 9.25381 11.6667 8.33333C11.6667 7.41286 10.9205 6.66667 9.99999 6.66667ZM6.66666 8.33333C6.66666 6.49238 8.15904 5 9.99999 5C11.8409 5 13.3333 6.49238 13.3333 8.33333C13.3333 10.1743 11.8409 11.6667 9.99999 11.6667C8.15904 11.6667 6.66666 10.1743 6.66666 8.33333Z" fill="#061938"/>
</mask>
<g mask="url(#mask0)">
<rect width="20" height="20" fill="#BCBCBC"/>
</g>
</svg>
