<svg width="16" height="16" viewBox="0 0 16 16" fill="none" xmlns="http://www.w3.org/2000/svg">
<mask id="mask0" mask-type="alpha" maskUnits="userSpaceOnUse" x="0" y="0" width="16" height="16">
<path fill-rule="evenodd" clip-rule="evenodd" d="M3.33203 1.33329C3.33203 0.965103 3.63051 0.666626 3.9987 0.666626H11.9987C12.3669 0.666626 12.6654 0.965103 12.6654 1.33329V5.99996C12.6654 6.36815 12.3669 6.66663 11.9987 6.66663C11.6305 6.66663 11.332 6.36815 11.332 5.99996V1.99996H4.66536V5.99996C4.66536 6.36815 4.36689 6.66663 3.9987 6.66663C3.63051 6.66663 3.33203 6.36815 3.33203 5.99996V1.33329Z" fill="#061938"/>
<path fill-rule="evenodd" clip-rule="evenodd" d="M2.66602 6.66659C2.4892 6.66659 2.31964 6.73682 2.19461 6.86185C2.06959 6.98687 1.99935 7.15644 1.99935 7.33325V10.6666C1.99935 10.8434 2.06959 11.013 2.19461 11.138C2.31964 11.263 2.4892 11.3333 2.66602 11.3333H3.99935C4.36754 11.3333 4.66602 11.6317 4.66602 11.9999C4.66602 12.3681 4.36754 12.6666 3.99935 12.6666H2.66602C2.13558 12.6666 1.62687 12.4559 1.2518 12.0808C0.876729 11.7057 0.666016 11.197 0.666016 10.6666V7.33325C0.666016 6.80282 0.876729 6.29411 1.2518 5.91904C1.62687 5.54397 2.13558 5.33325 2.66602 5.33325H13.3327C13.8631 5.33325 14.3718 5.54397 14.7469 5.91904C15.122 6.29411 15.3327 6.80282 15.3327 7.33325V10.6666C15.3327 11.197 15.122 11.7057 14.7469 12.0808C14.3718 12.4559 13.8631 12.6666 13.3327 12.6666H11.9993C11.6312 12.6666 11.3327 12.3681 11.3327 11.9999C11.3327 11.6317 11.6312 11.3333 11.9993 11.3333H13.3327C13.5095 11.3333 13.6791 11.263 13.8041 11.138C13.9291 11.013 13.9993 10.8434 13.9993 10.6666V7.33325C13.9993 7.15644 13.9291 6.98687 13.8041 6.86185C13.6791 6.73682 13.5095 6.66659 13.3327 6.66659H2.66602Z" fill="#061938"/>
<path fill-rule="evenodd" clip-rule="evenodd" d="M3.33203 9.33329C3.33203 8.9651 3.63051 8.66663 3.9987 8.66663H11.9987C12.3669 8.66663 12.6654 8.9651 12.6654 9.33329V14.6666C12.6654 15.0348 12.3669 15.3333 11.9987 15.3333H3.9987C3.63051 15.3333 3.33203 15.0348 3.33203 14.6666V9.33329ZM4.66536 9.99996V14H11.332V9.99996H4.66536Z" fill="#061938"/>
</mask>
<g mask="url(#mask0)">
<rect width="16" height="16" fill="#021032"/>
</g>
</svg>
