<svg width="29" height="29" viewBox="0 0 29 29" fill="none" xmlns="http://www.w3.org/2000/svg">
<path d="M12.5227 10.5455C12.8867 10.5455 13.1818 10.2504 13.1818 9.88639C13.1818 9.52238 12.8867 9.22729 12.5227 9.22729C12.1587 9.22729 11.8636 9.52238 11.8636 9.88639C11.8636 10.2504 12.1587 10.5455 12.5227 10.5455Z" fill="#272727"/>
<path d="M16.4773 10.5455C16.8413 10.5455 17.1364 10.2504 17.1364 9.88639C17.1364 9.52238 16.8413 9.22729 16.4773 9.22729C16.1133 9.22729 15.8182 9.52238 15.8182 9.88639C15.8182 10.2504 16.1133 10.5455 16.4773 10.5455Z" fill="#272727"/>
<path d="M5.8 2.63636L7.90909 2.96591V7.25C7.90909 8.56818 8.37045 11.6659 8.43636 11.7318C8.56818 12.8523 9.02954 13.9068 9.68863 14.7636L9.82045 14.9614C10.9409 16.3455 12.6545 17.1364 14.5 17.1364C16.3455 17.1364 17.9932 16.3455 19.1795 14.9614L19.3114 14.7636C20.0364 13.9068 20.4318 12.8523 20.5636 11.7977C20.5636 11.7977 20.7614 10.5455 20.8932 9.29318C20.9591 8.96364 20.6955 8.63409 20.3 8.56818C19.9045 8.50227 19.6409 8.76591 19.575 9.16136C19.4432 10.3477 19.2455 11.6 19.2455 11.6C19.1795 12.4568 18.7841 13.2477 18.2568 13.9068L18.125 14.1045C17.2682 15.225 15.95 15.8182 14.5 15.8182C13.05 15.8182 11.7318 15.225 10.875 14.1045L10.7432 13.9068C10.2159 13.2477 9.82045 12.4568 9.75454 11.5341C9.75454 11.5341 9.22727 8.43636 9.22727 7.18409V3.16364L14.3682 3.95455C14.4341 3.95455 14.4341 3.95455 14.5 3.95455C14.5659 3.95455 14.5659 3.95455 14.6318 3.95455L19.7727 3.16364V6.06364C17.0045 6.65682 13.6432 6.72273 10.6114 6.32727C10.2818 6.26136 9.88636 6.525 9.88636 6.85455C9.82045 7.18409 10.0841 7.57955 10.4136 7.57955C11.7318 7.77727 13.05 7.84318 14.4341 7.84318C16.5432 7.84318 18.7182 7.64545 20.5636 7.18409C20.8273 7.11818 21.0909 6.85455 21.0909 6.525V2.96591L22.4091 2.76818V6.12955C22.0136 6.32727 21.75 6.78864 21.75 7.25C21.75 7.975 22.3432 8.56818 23.0682 8.56818C23.7932 8.56818 24.3864 7.975 24.3864 7.25C24.3864 6.78864 24.1227 6.32727 23.7273 6.12955V1.97727C23.7273 1.64773 23.4636 1.38409 23.2 1.31818L14.6318 0C14.5659 0 14.5 0 14.4341 0L5.86591 1.31818C5.53636 1.38409 5.27273 1.64773 5.27273 1.97727C5.27273 2.30682 5.53636 2.57045 5.8 2.63636ZM14.5 1.31818L18.7182 1.97727L14.5 2.63636L10.2818 1.97727L14.5 1.31818Z" fill="#272727"/>
<path d="M23.0682 19.3773L18.5864 18.4546C18.3886 18.3887 18.1909 18.4546 18.0591 18.5864L15.3568 20.8273C14.8955 21.2227 14.1705 21.2227 13.6432 20.8273C13.6432 20.8273 13.5773 20.8273 13.5773 20.7614L12.1932 19.8387C11.8636 19.6409 11.4682 19.7068 11.2705 20.0364C11.0727 20.3659 11.1386 20.7614 11.4682 20.9591L12.7864 21.8818C13.1159 22.1455 13.4455 22.2773 13.775 22.4091V25.7046C13.775 26.1 14.0386 26.3637 14.4341 26.3637C14.8295 26.3637 15.0932 26.1 15.0932 25.7046V22.4091C15.4886 22.3432 15.8182 22.1455 16.1477 21.8818L18.5864 19.8387L22.7386 20.6955C23.6614 20.8932 24.3205 21.6841 24.3205 22.6068V27.0227C24.3205 27.4182 24.0568 27.6818 23.6614 27.6818H5.27273C4.87727 27.6818 4.61364 27.4182 4.61364 27.0227V22.6068C4.61364 21.6841 5.27273 20.8273 6.19545 20.6955L10.6773 19.7727C11.0068 19.7068 11.2705 19.3773 11.2045 18.9818C11.1386 18.6523 10.8091 18.3887 10.4136 18.4546L5.93182 19.3773C4.41591 19.7068 3.29545 21.025 3.29545 22.6068V27.0227C3.29545 28.1432 4.15227 29 5.27273 29H23.7273C24.8477 29 25.7045 28.1432 25.7045 27.0227V22.6068C25.7045 21.025 24.5841 19.6409 23.0682 19.3773Z" fill="#272727"/>
<path d="M13.8409 13.8409H15.1591C15.5545 13.8409 15.8182 13.5773 15.8182 13.1818C15.8182 12.7863 15.5545 12.5227 15.1591 12.5227H13.8409C13.4455 12.5227 13.1818 12.7863 13.1818 13.1818C13.1818 13.5773 13.4455 13.8409 13.8409 13.8409Z" fill="#272727"/>
</svg>
